# xmcd CD database file
#
# Track frame offsets:
#	150
#	22071
#	37561
#	59844
#	76338
#	94105
#	115076
#	134799
#	152769
#	172805
#	188823
#
# Disc length: 2752 seconds
#
# Revision: 0
# Processed by: cddbd v1.5.1PL0 Copyright (c) Steve Scherf et al.
# Submitted via: CDex 1.51
#
DISCID=8a0abe0b
DTITLE=Eva Cassidy - No Boundaries
DYEAR=2000
DGENRE=Blues
TTITLE0=Emotional Step - Full Version
TTITLE1=The Waiting Is Over
TTITLE2=You Are
TTITLE3=Natural Woman
TTITLE4=Little Children
TTITLE5=I've Got This Feeling
TTITLE6=When It's Too Late
TTITLE7=On the Inside
TTITLE8=Emotional Step - Radio Edit
TTITLE9=Natural Woman - Traditional
TTITLE10=Little Children - Reflection
EXTD=YEAR: 2000
EXTT0=
EXTT1=
EXTT2=
EXTT3=
EXTT4=
EXTT5=
EXTT6=
EXTT7=
EXTT8=
EXTT9=
EXTT10=
PLAYORDER=
